<svg width="1631" height="726" viewBox="0 0 1631 726" fill="none" xmlns="http://www.w3.org/2000/svg">
<path d="M76.0341 178.702C83.0602 155.662 104.26 139.875 128.347 139.746L613.207 137.145C585.269 249.645 486.035 329.922 370.18 333.745L102.133 342.59C64.4453 343.833 36.7117 307.645 47.7111 271.576L76.0341 178.702Z" fill="url(#paint0_linear_231_2)"/>
<path d="M549.854 547.075C542.828 570.114 521.628 585.901 497.541 586.031L12.6813 588.632C40.6194 476.131 139.853 395.855 255.708 392.032L523.755 383.187C561.443 381.943 589.176 418.132 578.177 454.2L549.854 547.075Z" fill="url(#paint1_linear_231_2)"/>
<path d="M97.8855 194.08C107.704 158.016 149.862 142.039 181.117 162.537L532.232 392.809C551.243 405.277 560.624 428.158 555.836 450.383L539.875 524.473C531.821 561.859 489.015 579.817 456.699 559.367L100.113 333.724C79.7071 320.812 70.1106 296.1 76.4541 272.8L97.8855 194.08Z" fill="#6C83FE" fill-opacity="0.69" style="mix-blend-mode:overlay"/>
<path d="M863.472 475V450.391L975.332 289.95H862.832V256.818H1024.34V281.428L912.584 441.868H1024.98V475H863.472ZM1115.24 475H1073.05L1149.87 256.818H1198.66L1275.58 475H1233.39L1175.11 301.562H1173.41L1115.24 475ZM1116.63 389.453H1231.68V421.2H1116.63V389.453ZM1367.84 256.818V475H1328.31V256.818H1367.84ZM1316.27 232.741C1310.66 232.741 1305.83 230.753 1301.79 226.776C1297.67 222.798 1295.61 218.111 1295.61 212.713C1295.61 207.031 1297.67 202.273 1301.79 198.438C1305.83 194.531 1310.66 192.578 1316.27 192.578C1322.03 192.578 1326.86 194.531 1330.76 198.438C1334.74 202.273 1336.73 207.031 1336.73 212.713C1336.73 218.111 1334.74 222.798 1330.76 226.776C1326.86 230.753 1322.03 232.741 1316.27 232.741ZM1380.19 232.741C1374.58 232.741 1369.72 230.753 1365.6 226.776C1361.55 222.798 1359.53 218.111 1359.53 212.713C1359.53 207.031 1361.55 202.273 1365.6 198.438C1369.72 194.531 1374.58 192.578 1380.19 192.578C1385.95 192.578 1390.78 194.531 1394.68 198.438C1398.66 202.273 1400.65 207.031 1400.65 212.713C1400.65 218.111 1398.66 222.798 1394.68 226.776C1390.78 230.753 1385.95 232.741 1380.19 232.741ZM1462.66 475H1420.47L1497.28 256.818H1546.07L1622.99 475H1580.8L1522.53 301.562H1520.82L1462.66 475ZM1464.04 389.453H1579.1V421.2H1464.04V389.453Z" fill="white"/>
<defs>
<linearGradient id="paint0_linear_231_2" x1="370.08" y1="69.3254" x2="273.808" y2="414.451" gradientUnits="userSpaceOnUse">
<stop stop-color="#B15FF1"/>
<stop offset="1" stop-color="#5FCEF1" stop-opacity="0"/>
</linearGradient>
<linearGradient id="paint1_linear_231_2" x1="255.809" y1="656.451" x2="352.08" y2="311.326" gradientUnits="userSpaceOnUse">
<stop stop-color="#6B5FF1"/>
<stop offset="1" stop-color="#5FCEF1" stop-opacity="0"/>
</linearGradient>
</defs>
</svg>
