<svg width="51" height="58" viewBox="0 0 51 58" fill="none" xmlns="http://www.w3.org/2000/svg">
<path d="M5.31627 16.8405C6.34632 13.4765 9.45432 11.1714 12.9854 11.1525L49.2013 10.959C46.9598 19.9494 38.9977 26.3647 29.7017 26.6702L8.93839 27.3526C5.5496 27.4639 3.05585 24.223 4.04489 20.9928L5.31627 16.8405Z" fill="white"/>
<path d="M44.9027 42.1595C43.8725 45.5235 40.7648 47.8283 37.2335 47.8474L1.01758 48.0409C3.25924 39.0505 11.2214 32.6352 20.5173 32.3297L41.2806 31.6473C44.6694 31.536 47.1629 34.7769 46.174 38.0069L44.9027 42.1595Z" fill="white"/>
<path d="M6.73492 19.6052C8.07503 14.7026 13.8292 12.5306 18.0952 15.3171L41.0583 30.3165C43.5757 31.961 44.8182 34.9787 44.1841 37.9102C43.1175 42.8409 37.4489 45.2095 33.1693 42.5123L9.96409 27.8874C7.17891 26.1321 5.86912 22.7726 6.73492 19.6052Z" fill="white" fill-opacity="0.53"/>
</svg>
