<svg width="21" height="21" viewBox="0 0 21 21" fill="none" xmlns="http://www.w3.org/2000/svg">
<path d="M3.58575 17.4143C3.89045 17.719 4.25221 17.9608 4.65037 18.1258C5.04853 18.2907 5.47528 18.3756 5.90625 18.3756C6.33722 18.3756 6.76397 18.2907 7.16213 18.1258C7.56029 17.9608 7.92205 17.719 8.22675 17.4143L13.8276 11.8125M5.90625 18.375C5.03601 18.375 4.20141 18.0293 3.58606 17.4139C2.9707 16.7986 2.625 15.964 2.625 15.0938V3.60938C2.625 3.066 3.066 2.625 3.60938 2.625H8.20312C8.7465 2.625 9.1875 3.066 9.1875 3.60938V7.17237M5.90625 18.375C6.77649 18.375 7.61109 18.0293 8.22644 17.4139C8.8418 16.7986 9.1875 15.964 9.1875 15.0938V7.17237M5.90625 18.375H17.3906C17.934 18.375 18.375 17.934 18.375 17.3906V12.7969C18.375 12.2535 17.934 11.8125 17.3906 11.8125H13.8276M9.1875 7.17237L11.7075 4.65237C12.0908 4.26825 12.7138 4.26825 13.0988 4.65237L16.3467 7.90125C16.7317 8.28625 16.7317 8.90925 16.3467 9.2925L13.8276 11.8125M5.90625 15.0938H5.91325V15.1007H5.90625V15.0938Z" stroke="white" stroke-width="1.5" stroke-linecap="round" stroke-linejoin="round"/>
</svg>
