<svg width="21" height="21" viewBox="0 0 21 21" fill="none" xmlns="http://www.w3.org/2000/svg">
<path d="M8.33877 14.1068C9.37916 13.7523 10.3742 13.2766 11.3033 12.6893M6.89065 12.6674C7.24521 11.6248 7.72158 10.6277 8.3099 9.69682M11.3024 12.6893C12.9617 11.6409 14.3819 10.2553 15.4709 8.62232L18.8624 3.53506C18.9923 3.34131 19.051 3.10845 19.0283 2.87627C19.0056 2.64409 18.903 2.42698 18.7381 2.26202C18.5731 2.09706 18.356 1.99449 18.1238 1.97181C17.8916 1.94914 17.6588 2.00777 17.465 2.13769L12.3778 5.53007C10.7446 6.61869 9.35864 8.03863 8.3099 9.69769M11.3024 12.6902C10.707 11.3585 9.64156 10.2931 8.3099 9.69769M8.33877 14.1068C8.10986 13.5425 7.69186 13.0753 7.15636 12.7853C6.62086 12.4953 6.00119 12.4005 5.40348 12.5171C4.80576 12.6338 4.2672 12.9546 3.88004 13.4247C3.49288 13.8948 3.2812 14.4848 3.28127 15.0938C3.28128 15.3634 3.2259 15.6301 3.1186 15.8775C3.01129 16.1248 2.85432 16.3474 2.65744 16.5316C2.46055 16.7158 2.22794 16.8575 1.97402 16.9481C1.72009 17.0387 1.45027 17.0762 1.18127 17.0582C1.61392 17.8098 2.28258 18.3975 3.08346 18.7301C3.88434 19.0628 4.77263 19.1217 5.61043 18.8978C6.44824 18.6739 7.18869 18.1797 7.71684 17.4918C8.24498 16.804 8.53128 15.961 8.53127 15.0938C8.53127 14.7447 8.46302 14.4113 8.33877 14.1068Z" stroke="white" stroke-width="1.5" stroke-linecap="round" stroke-linejoin="round"/>
</svg>
