<svg width="21" height="21" viewBox="0 0 21 21" fill="none" xmlns="http://www.w3.org/2000/svg">
<path d="M7.21875 5.90625H17.7188M7.21875 10.5H17.7188M7.21875 15.0938H17.7188M3.28125 5.90625H3.28737V5.91325H3.28125V5.90625ZM3.60938 5.90625C3.60938 5.99327 3.5748 6.07673 3.51327 6.13827C3.45173 6.1998 3.36827 6.23438 3.28125 6.23438C3.19423 6.23438 3.11077 6.1998 3.04923 6.13827C2.9877 6.07673 2.95313 5.99327 2.95312 5.90625C2.95312 5.81923 2.9877 5.73577 3.04923 5.67423C3.11077 5.6127 3.19423 5.57812 3.28125 5.57812C3.36827 5.57812 3.45173 5.6127 3.51327 5.67423C3.5748 5.73577 3.60938 5.81923 3.60938 5.90625ZM3.28125 10.5H3.28737V10.507H3.28125V10.5ZM3.60938 10.5C3.60938 10.587 3.5748 10.6705 3.51327 10.732C3.45173 10.7936 3.36827 10.8281 3.28125 10.8281C3.19423 10.8281 3.11077 10.7936 3.04923 10.732C2.9877 10.6705 2.95313 10.587 2.95312 10.5C2.95312 10.413 2.9877 10.3295 3.04923 10.268C3.11077 10.2064 3.19423 10.1719 3.28125 10.1719C3.36827 10.1719 3.45173 10.2064 3.51327 10.268C3.5748 10.3295 3.60938 10.413 3.60938 10.5V10.5ZM3.28125 15.0938H3.28737V15.1007H3.28125V15.0938ZM3.60938 15.0938C3.60938 15.1808 3.5748 15.2642 3.51327 15.3258C3.45173 15.3873 3.36827 15.4219 3.28125 15.4219C3.19423 15.4219 3.11077 15.3873 3.04923 15.3258C2.9877 15.2642 2.95313 15.1808 2.95312 15.0938C2.95312 15.0067 2.9877 14.9233 3.04923 14.8617C3.11077 14.8002 3.19423 14.7656 3.28125 14.7656C3.36827 14.7656 3.45173 14.8002 3.51327 14.8617C3.5748 14.9233 3.60938 15.0067 3.60938 15.0938Z" stroke="white" stroke-width="1.5" stroke-linecap="round" stroke-linejoin="round"/>
</svg>
