<svg width="21" height="21" viewBox="0 0 21 21" fill="none" xmlns="http://www.w3.org/2000/svg">
<path d="M8.39475 3.4475C8.4735 2.97325 8.88475 2.625 9.366 2.625H11.6349C12.1161 2.625 12.5274 2.97325 12.6061 3.4475L12.7925 4.56838C12.8476 4.89563 13.0664 5.16863 13.3569 5.32963C13.4216 5.36463 13.4855 5.40225 13.5494 5.44075C13.8329 5.61225 14.1794 5.66563 14.49 5.54925L15.5549 5.15025C15.7731 5.06818 16.0134 5.06623 16.2329 5.14475C16.4524 5.22326 16.6369 5.37715 16.7536 5.579L17.8876 7.54513C18.004 7.74699 18.0451 7.98362 18.0034 8.21289C17.9618 8.44217 17.8401 8.64924 17.6601 8.79725L16.7825 9.52087C16.5261 9.73087 16.3992 10.0573 16.4054 10.3889C16.4068 10.4632 16.4068 10.5376 16.4054 10.612C16.3992 10.9428 16.5261 11.2683 16.7816 11.4783L17.661 12.2028C18.032 12.509 18.1282 13.0375 17.8885 13.454L16.7527 15.4201C16.6362 15.6219 16.4519 15.7759 16.2326 15.8545C16.0132 15.9332 15.7731 15.9315 15.5549 15.8498L14.49 15.4508C14.1794 15.3344 13.8337 15.3877 13.5485 15.5592C13.4851 15.5978 13.4209 15.6352 13.356 15.6712C13.0664 15.8314 12.8476 16.1044 12.7925 16.4316L12.6061 17.5516C12.5274 18.0267 12.1161 18.375 11.6349 18.375H9.36512C8.88387 18.375 8.47262 18.0267 8.39387 17.5525L8.2075 16.4316C8.15325 16.1044 7.9345 15.8314 7.644 15.6704C7.57911 15.6346 7.51494 15.5975 7.4515 15.5592C7.16712 15.3877 6.8215 15.3344 6.51 15.4508L5.44512 15.8498C5.22701 15.9316 4.98694 15.9334 4.76761 15.8549C4.54828 15.7764 4.36389 15.6227 4.24725 15.421L3.11237 13.4549C2.99595 13.253 2.95491 13.0164 2.99657 12.7871C3.03823 12.5578 3.15988 12.3508 3.33987 12.2028L4.21837 11.4791C4.47387 11.2691 4.60075 10.9427 4.59462 10.6111C4.59325 10.5368 4.59325 10.4624 4.59462 10.388C4.60075 10.0572 4.47387 9.73175 4.21837 9.52175L3.33987 8.79725C3.16009 8.64928 3.03859 8.44238 2.99694 8.2133C2.95528 7.98421 2.99618 7.74778 3.11237 7.546L4.24725 5.57987C4.36379 5.37787 4.54826 5.2238 4.7678 5.14512C4.98733 5.06644 5.22767 5.06826 5.446 5.15025L6.51 5.54925C6.8215 5.66563 7.16712 5.61225 7.4515 5.44075C7.5145 5.40225 7.57925 5.36463 7.644 5.32875C7.9345 5.16863 8.15325 4.89563 8.2075 4.56838L8.39475 3.4475Z" stroke="white" stroke-width="1.5" stroke-linecap="round" stroke-linejoin="round"/>
<path d="M13.125 10.5C13.125 11.1962 12.8484 11.8639 12.3562 12.3562C11.8639 12.8484 11.1962 13.125 10.5 13.125C9.80381 13.125 9.13613 12.8484 8.64384 12.3562C8.15156 11.8639 7.875 11.1962 7.875 10.5C7.875 9.80381 8.15156 9.13613 8.64384 8.64384C9.13613 8.15156 9.80381 7.875 10.5 7.875C11.1962 7.875 11.8639 8.15156 12.3562 8.64384C12.8484 9.13613 13.125 9.80381 13.125 10.5Z" stroke="white" stroke-width="1.5" stroke-linecap="round" stroke-linejoin="round"/>
</svg>
