<svg width="21" height="21" viewBox="0 0 21 21" fill="none" xmlns="http://www.w3.org/2000/svg">
<path d="M10.0449 3.06157C10.082 2.9713 10.145 2.89407 10.226 2.83972C10.307 2.78537 10.4024 2.75635 10.4999 2.75635C10.5975 2.75635 10.6929 2.78537 10.7739 2.83972C10.8549 2.89407 10.9179 2.9713 10.9549 3.06157L12.8143 7.53369C12.8491 7.61737 12.9063 7.68983 12.9797 7.74309C13.053 7.79635 13.1396 7.82835 13.2299 7.83557L18.0582 8.22232C18.4948 8.25732 18.6716 8.80244 18.3391 9.08682L14.6606 12.2386C14.5918 12.2974 14.5406 12.3739 14.5125 12.4599C14.4845 12.5459 14.4806 12.6379 14.5013 12.7259L15.6257 17.4378C15.6483 17.5324 15.6424 17.6315 15.6087 17.7226C15.575 17.8138 15.515 17.8929 15.4364 17.9501C15.3577 18.0072 15.2639 18.0397 15.1668 18.0435C15.0697 18.0473 14.9736 18.0223 14.8907 17.9716L10.7563 15.4472C10.6791 15.4001 10.5904 15.3752 10.4999 15.3752C10.4095 15.3752 10.3208 15.4001 10.2436 15.4472L6.1092 17.9724C6.0263 18.0232 5.93022 18.0482 5.8331 18.0444C5.73598 18.0406 5.64217 18.008 5.56352 17.9509C5.48487 17.8938 5.42492 17.8147 5.39122 17.7235C5.35752 17.6323 5.3516 17.5332 5.3742 17.4387L6.49857 12.7259C6.51943 12.6379 6.51559 12.5458 6.4875 12.4599C6.4594 12.3739 6.40813 12.2973 6.33932 12.2386L2.66082 9.08682C2.58716 9.02348 2.53387 8.93977 2.50765 8.84622C2.48144 8.75268 2.48347 8.65347 2.51349 8.56107C2.54351 8.46868 2.60018 8.38722 2.67637 8.32694C2.75256 8.26667 2.84487 8.23027 2.9417 8.22232L7.76995 7.83557C7.86029 7.82835 7.94689 7.79635 8.02022 7.74309C8.09355 7.68983 8.15077 7.61737 8.18557 7.53369L10.0449 3.06244V3.06157Z" stroke="white" stroke-width="1.5" stroke-linecap="round" stroke-linejoin="round"/>
</svg>
