<svg width="22" height="16" viewBox="0 0 22 16" fill="none" xmlns="http://www.w3.org/2000/svg">
<path d="M1.25 2.125C1.25 1.504 1.754 1 2.375 1H8.375C8.996 1 9.5 1.504 9.5 2.125V5.875C9.5 6.496 8.996 7 8.375 7H2.375C2.07663 7 1.79048 6.88147 1.5795 6.6705C1.36853 6.45952 1.25 6.17337 1.25 5.875V2.125ZM13.25 3.625C13.25 3.004 13.754 2.5 14.375 2.5H19.625C20.246 2.5 20.75 3.004 20.75 3.625V11.875C20.75 12.496 20.246 13 19.625 13H14.375C14.0766 13 13.7905 12.8815 13.5795 12.6705C13.3685 12.4595 13.25 12.1734 13.25 11.875V3.625ZM2.75 11.125C2.75 10.504 3.254 10 3.875 10H9.125C9.746 10 10.25 10.504 10.25 11.125V13.375C10.25 13.996 9.746 14.5 9.125 14.5H3.875C3.57663 14.5 3.29048 14.3815 3.0795 14.1705C2.86853 13.9595 2.75 13.6734 2.75 13.375V11.125Z" stroke="white" stroke-width="1.8" stroke-linecap="round" stroke-linejoin="round"/>
</svg>
